<?xml version="1.0" standalone="no"?>
<!DOCTYPE svg PUBLIC "-//W3C//DTD SVG 20010904//EN"
 "http://www.w3.org/TR/2001/REC-SVG-20010904/DTD/svg10.dtd">
<svg version="1.0" xmlns="http://www.w3.org/2000/svg"
 width="700.000000pt" height="700.000000pt" viewBox="0 0 700.000000 700.000000"
 preserveAspectRatio="xMidYMid meet">
<metadata>
Created by potrace 1.14, written by Peter Selinger 2001-2017
</metadata>
<g transform="translate(0.000000,700.000000) scale(0.100000,-0.100000)"
fill="#000000" stroke="none">
<path d="M1341 6112 c-212 -42 -401 -227 -452 -442 -20 -84 -21 -4212 -1
-4320 40 -219 220 -407 442 -461 45 -11 430 -13 2155 -13 1155 0 2120 3 2145
6 175 24 339 144 432 314 9 17 27 65 39 105 l23 74 0 2130 -1 2130 -26 80
c-68 206 -239 358 -448 401 -19 4 -981 8 -2138 8 -1706 1 -2116 -1 -2170 -12z
m4195 -575 c4 -3 7 -2924 4 -3173 l0 -31 -123 0 -124 0 -436 -436 -436 -436
-98 -2 c-54 0 -161 0 -237 0 l-139 1 435 435 c376 375 432 435 410 436 -15 1
-153 2 -307 3 l-280 1 -435 -435 -435 -435 -185 -5 c-102 -3 -208 -4 -237 -2
l-52 3 435 435 c239 239 434 435 434 437 0 1 -138 2 -307 1 l-306 0 -438 -437
-437 -437 -233 0 c-129 -1 -250 -1 -269 0 -34 0 -23 12 399 434 327 327 429
434 415 437 -11 3 -149 4 -308 3 l-288 -1 -246 -246 c-135 -136 -248 -245
-250 -243 -3 3 -5 3462 -2 3668 0 17 6 28 17 30 26 5 4054 0 4059 -5z m4
-3828 c0 -134 -2 -244 -4 -246 -3 -3 -125 -4 -414 -3 l-83 0 248 248 c136 137
249 248 251 246 2 -1 3 -111 2 -245z"/>
<path d="M4232 4570 c-291 -291 -533 -530 -537 -530 -3 0 -129 123 -279 273
-150 149 -281 278 -290 286 -16 13 -75 -43 -657 -625 -351 -351 -639 -642
-639 -645 0 -4 91 -98 201 -209 l202 -201 34 33 c19 18 217 215 440 437 l406
403 291 -291 292 -291 734 735 c404 404 737 740 738 745 3 9 -389 410 -401
410 -3 0 -243 -238 -535 -530z"/>
</g>
</svg>
